<svg xmlns="http://www.w3.org/2000/svg" viewBox="0 0 40 40">
  <!-- Outer 16-gon ring (radius 18, centered at 20,20) — dashed torch amber.
       polygon with stroke-dasharray is the single allowed exception per §4.3.3. -->
  <polygon points="38,20 37,27 33,33 27,37 20,38 13,37 7,33 3,27 2,20 3,13 7,7 13,3 20,2 27,3 33,7 37,13" fill="none" stroke="#e8a541" stroke-width="1" stroke-dasharray="3 3"/>
  <!-- Inner faint 16-gon ring (radius 14) -->
  <polygon points="34,20 33,25 30,30 25,33 20,34 15,33 10,30 7,25 6,20 7,15 10,10 15,7 20,6 25,7 30,10 33,15" fill="none" stroke="#e8a541" stroke-width="1"/>
</svg>
